<svg xmlns="http://www.w3.org/2000/svg" viewBox="0 0 32 32" fill="none">
  <defs>
    <linearGradient id="grad" x1="0%" y1="0%" x2="100%" y2="100%">
      <stop offset="0%" style="stop-color:#3b82f6;stop-opacity:1" />
      <stop offset="100%" style="stop-color:#8b5cf6;stop-opacity:1" />
    </linearGradient>
  </defs>
  <rect width="32" height="32" rx="8" fill="url(#grad)"/>
  <path d="M8 22V10a2 2 0 0 1 2-2h8a2 2 0 0 1 2 2v12" stroke="white" stroke-width="2" stroke-linecap="round" stroke-linejoin="round"/>
  <path d="M8 16H6a2 2 0 0 0-2 2v4a2 2 0 0 0 2 2h2" stroke="white" stroke-width="2" stroke-linecap="round" stroke-linejoin="round"/>
  <path d="M20 13h2a2 2 0 0 1 2 2v7a2 2 0 0 1-2 2h-2" stroke="white" stroke-width="2" stroke-linecap="round" stroke-linejoin="round"/>
  <line x1="12" y1="12" x2="16" y2="12" stroke="white" stroke-width="2" stroke-linecap="round"/>
  <line x1="12" y1="16" x2="16" y2="16" stroke="white" stroke-width="2" stroke-linecap="round"/>
  <line x1="12" y1="20" x2="16" y2="20" stroke="white" stroke-width="2" stroke-linecap="round"/>
</svg>
